<?xml version="1.0" encoding="utf-8"?>
<!-- Generator: Adobe Illustrator 22.0.1, SVG Export Plug-In . SVG Version: 6.00 Build 0)  -->
<svg version="1.1" id="Layer_1" xmlns="http://www.w3.org/2000/svg" xmlns:xlink="http://www.w3.org/1999/xlink" x="0px" y="0px"
	 viewBox="0 0 200 200" style="enable-background:new 0 0 200 200;" xml:space="preserve">
<style type="text/css">
	.st0{fill:#BB6F29;}
	.st1{fill:#F7941F;}
	.st2{fill:#FFFFFF;}
	.st3{fill:#F49F43;}
</style>
<circle class="st0" cx="100" cy="100" r="100"/>
<path class="st1" d="M100,0C44.8,0,0,44.8,0,100c0,26.6,10.4,50.8,27.3,68.7C45.2,185.6,69.4,196,96,196c55.2,0,100-44.8,100-100
	c0-26.6-10.4-50.8-27.3-68.7C150.8,10.4,126.6,0,100,0z"/>
<g>
	<path class="st2" d="M157,107.7H43c-6.6,0-12-5.4-12-12v-5.5c0-6.6,5.4-12,12-12h114c6.6,0,12,5.4,12,12v5.5
		C169,102.3,163.6,107.7,157,107.7z"/>
	<path class="st2" d="M132.8,143.4H67.2c-12.5,0-22.7-10.2-22.7-22.7V79.2c0-12.5,10.2-22.7,22.7-22.7h65.6
		c12.5,0,22.7,10.2,22.7,22.7v41.5C155.5,133.2,145.3,143.4,132.8,143.4z"/>
	<path class="st3" d="M65.5,117.9c0,0.1,0,0.1,0,0.2c0,5.8,15.5,10.5,34.5,10.5s34.5-4.7,34.5-10.5c0-0.1,0-0.1,0-0.2H65.5z"/>
	<g>
		<path class="st3" d="M76,99.8L76,99.8c-6.6,0-12-5.4-12-12v0c0-6.6,5.4-12,12-12h0c6.6,0,12,5.4,12,12v0
			C88,94.4,82.6,99.8,76,99.8z"/>
		<path class="st3" d="M124,99.8L124,99.8c-6.6,0-12-5.4-12-12v0c0-6.6,5.4-12,12-12h0c6.6,0,12,5.4,12,12v0
			C136,94.4,130.6,99.8,124,99.8z"/>
	</g>
</g>
</svg>
